
        <svg xmlns="http://www.w3.org/2000/svg" xmlns:xlink="http://www.w3.org/1999/xlink" version="1.1" width="3254.4163998235063" 
        height="3248.714415755328" viewBox="0 0 3254.4163998235063 3248.714415755328">
			<rect fill="#252a34" width="3254.4163998235063" height="3248.714415755328"/>
			<g transform="scale(12.72081999117532) translate(10, 10)">
				<defs id="SvgjsDefs1207"><linearGradient id="SvgjsLinearGradient1212"><stop id="SvgjsStop1213" stop-color="#006838" offset="0"></stop><stop id="SvgjsStop1214" stop-color="#96cf24" offset="1"></stop></linearGradient></defs><g id="SvgjsG1208" featureKey="monogramFeature-0" transform="matrix(3.3573569442033557,0,0,3.3573569442033557,37.927929167389934,-60.430888119617826)" fill="url(#SvgjsLinearGradient1212)"><path d="M32.173 38.432 l12.827 -0.000058594 l0 0.5676 c0 11.58 -9.4206 21 -21 21 s-21 -9.42 -21 -21 s9.4206 -21 21 -21 c4.5856 0 8.9424 1.4513 12.6 4.1983 l-0.6819 0.90768 c-3.4586 -2.5976 -7.5798 -3.9707 -11.917 -3.9707 c-6.627 0 -12.503 3.2655 -16.114 8.268 c2.4821 3.1687 3.8471 7.1064 3.8471 11.144 c0 4.2245 -1.4881 8.331 -4.1884 11.57 c3.5753 5.2739 9.6162 8.7468 16.454 8.7468 c10.764 0 19.555 -8.6046 19.856 -19.297 l-11.684 0 l0 -1.1351 z M4.1351 39 c0 3.6866 1.0133 7.14 2.7709 10.103 c2.3823 -2.9896 3.6931 -6.7194 3.6931 -10.555 c0 -3.6598 -1.2075 -7.2258 -3.3898 -10.142 c-1.9437 3.0689 -3.0742 6.7014 -3.0742 10.595 z"></path></g><g id="SvgjsG1209" featureKey="nameFeature-0" transform="matrix(2.5792514894581102,0,0,2.5792514894581102,-6.706054856497447,130.8743393562383)" fill="#ffffff"><path d="M28.92 25.86 c0.36 0 0.6 0.24 0.6 0.6 l0 1 c0 7.48 -4.94 13.06 -12.9 13.06 c-8.08 0 -14.02 -6.44 -14.02 -14.46 c0 -7.98 6.06 -14.38 14 -14.38 c3.8 0 6.74 1.4 9.36 3.68 c0.28 0.24 0.34 0.56 0.04 0.84 l-0.86 0.88 c-0.3 0.28 -0.56 0.22 -0.84 -0.02 c-2.16 -1.86 -4.56 -2.96 -7.68 -2.96 c-6.36 0 -11.5 5.14 -11.5 11.96 c0 6.86 5.08 12.02 11.52 12.02 c5.92 0 10.38 -3.92 10.54 -9.8 l-10.06 0 c-0.36 0 -0.6 -0.24 -0.6 -0.6 l0 -1.22 c0 -0.36 0.24 -0.6 0.6 -0.6 l11.8 0 z M57.567499999999995 14.36 l-8 0 l0 23.28 l8 0 c0.36 0 0.6 0.24 0.6 0.6 l0 1.16 c0 0.36 -0.24 0.6 -0.6 0.6 l-18.5 0 c-0.36 0 -0.6 -0.24 -0.6 -0.6 l0 -1.16 c0 -0.36 0.24 -0.6 0.6 -0.6 l8 0 l0 -23.28 l-8 0 c-0.36 0 -0.6 -0.24 -0.6 -0.6 l0 -1.16 c0 -0.36 0.24 -0.6 0.6 -0.6 l18.5 0 c0.36 0 0.6 0.24 0.6 0.6 l0 1.16 c0 0.36 -0.24 0.6 -0.6 0.6 z M93.435 25.86 c0.36 0 0.6 0.24 0.6 0.6 l0 1 c0 7.48 -4.94 13.06 -12.9 13.06 c-8.08 0 -14.02 -6.44 -14.02 -14.46 c0 -7.98 6.06 -14.38 14 -14.38 c3.8 0 6.74 1.4 9.36 3.68 c0.28 0.24 0.34 0.56 0.04 0.84 l-0.86 0.88 c-0.3 0.28 -0.56 0.22 -0.84 -0.02 c-2.16 -1.86 -4.56 -2.96 -7.68 -2.96 c-6.36 0 -11.5 5.14 -11.5 11.96 c0 6.86 5.08 12.02 11.52 12.02 c5.92 0 10.38 -3.92 10.54 -9.8 l-10.06 0 c-0.36 0 -0.6 -0.24 -0.6 -0.6 l0 -1.22 c0 -0.36 0.24 -0.6 0.6 -0.6 l11.8 0 z"></path></g>
			</g>
		</svg>
	